<?xml version="1.0" encoding="iso-8859-1"?>
<!-- Generator: Adobe Illustrator 19.0.0, SVG Export Plug-In . SVG Version: 6.00 Build 0)  -->
<svg version="1.1" id="Capa_1" xmlns="http://www.w3.org/2000/svg" xmlns:xlink="http://www.w3.org/1999/xlink" x="0px" y="0px"
	 viewBox="0 0 398.596 398.596" style="enable-background:new 0 0 398.596 398.596;" xml:space="preserve">
<g>
	<path style="fill:#ffb900;" d="M373.369,238.596c0-21.427-15.399-39.316-35.709-43.206c1.657-4.626,2.566-9.605,2.566-14.794c0-24.262-19.738-44-44-44
		H155.401c16.857-28.102,25.566-60,25.286-92.97C180.483,19.512,160.747,0,136.598,0c-0.093,0-0.188,0-0.281,0.001
		c-24.261,0.205-43.831,20.11-43.625,44.372c0.318,37.577-23.289,72.145-57.41,84.06l-10.055,3.511v266.652H259.94
		c24.262,0,44-19.738,44-44c0-5.017-0.855-9.835-2.409-14.331c21.768-2.629,38.695-21.204,38.695-43.669
		c0-5.189-0.909-10.168-2.566-14.794C357.97,277.911,373.369,260.023,373.369,238.596z M329.369,252.596h-99.428v30h66.285
		c7.72,0,14,6.28,14,14s-6.28,14-14,14h-66.285v30h29.999c7.72,0,14,6.28,14,14s-6.28,14-14,14H55.227v-215.93
		c40.584-18.923,67.858-62.06,67.463-108.548c-0.065-7.72,6.162-14.054,13.848-14.118c0.03,0,0.061-0.001,0.091-0.001
		c7.696,0,13.996,6.209,14.062,13.882c0.261,30.769-8.897,60.42-26.486,85.75c-2.706,3.897-5.617,7.694-8.651,11.285l-3.544,4.192
		v21.487h184.219c7.72,0,14,6.28,14,14s-6.28,14-14,14h-66.285v30h99.428c7.72,0,14,6.28,14,14S337.089,252.596,329.369,252.596z"/>
</g>
<g>
</g>
<g>
</g>
<g>
</g>
<g>
</g>
<g>
</g>
<g>
</g>
<g>
</g>
<g>
</g>
<g>
</g>
<g>
</g>
<g>
</g>
<g>
</g>
<g>
</g>
<g>
</g>
<g>
</g>
</svg>
