<?xml version="1.0" encoding="iso-8859-1"?>
<!-- Generator: Adobe Illustrator 19.1.0, SVG Export Plug-In . SVG Version: 6.00 Build 0)  -->
<svg version="1.1" id="Capa_1" xmlns="http://www.w3.org/2000/svg" xmlns:xlink="http://www.w3.org/1999/xlink" x="0px" y="0px"
	 viewBox="0 0 372.818 372.818" style="enable-background:new 0 0 372.818 372.818;" xml:space="preserve">
<g>
	<path style="fill:#ffb900;" d="M231.533,70.527h21.134V0h-131.25v70.527h21.083L106.673,276.45l79.745,96.368l79.728-96.348L231.533,70.527z
		 M138.923,178.59l81.81-81.811l8.948,53.239L125.826,253.875L138.923,178.59z M232.733,168.179l8.948,53.239l-88.141,88.141
		l-28.159-34.028L232.733,168.179z M136.417,15h101.25v40.527h-101.25V15z M216.322,70.527l1.36,8.092l-74.29,74.291l14.333-82.383
		H216.322z M186.417,349.29l-23.271-28.122l81.588-81.588l5.481,32.613L186.417,349.29z"/>
	<g>
	</g>
	<g>
	</g>
	<g>
	</g>
	<g>
	</g>
	<g>
	</g>
	<g>
	</g>
	<g>
	</g>
	<g>
	</g>
	<g>
	</g>
	<g>
	</g>
	<g>
	</g>
	<g>
	</g>
	<g>
	</g>
	<g>
	</g>
	<g>
	</g>
</g>
<g>
</g>
<g>
</g>
<g>
</g>
<g>
</g>
<g>
</g>
<g>
</g>
<g>
</g>
<g>
</g>
<g>
</g>
<g>
</g>
<g>
</g>
<g>
</g>
<g>
</g>
<g>
</g>
<g>
</g>
</svg>
