<?xml version="1.0" encoding="utf-8"?>
<!-- Generator: Adobe Illustrator 24.2.0, SVG Export Plug-In . SVG Version: 6.00 Build 0)  -->
<svg version="1.1" id="Warstwa_1" xmlns="http://www.w3.org/2000/svg" xmlns:xlink="http://www.w3.org/1999/xlink" x="0px" y="0px"
	 viewBox="0 0 1050 250" style="enable-background:new 0 0 1050 250;" xml:space="preserve">
<style type="text/css">
	.st0{fill:#F3F3F3;}
</style>
<path class="st0" d="M24.06,212.45v13c0,0,286.96,3.3,530.31-9.42c278.69-14.58,464.69-36.58,464.69-36.58v-4
	c0,0-149,17-466.07,31.33C285.03,218.89,24.06,212.45,24.06,212.45z"/>
<g>
	<g>
		<path class="st0" d="M229.06,153.45c-8-19-45-35-45-35l-40-93l-76,161l32-26c0,0,4,5,35,9s47-3,47-3s-28-3-46-9s-29-13-29-13
			l16.19-33.7c2.48,0.63,8.43,2.16,13.81,3.7c7,2,16,6,16,6l-6-15l-20.84-0.87l17.84-37.13l27,61c0,0,2,1,8,5s16,12,20,18s8,13,5,22
			s-19,14-19,14s24.99-0.48,37-8C231.89,173.3,232.66,162,229.06,153.45z"/>
		<path class="st0" d="M72.06,146.45l11-23c0,0-5-6-4-13s5-11,11-14s8-3,8-3s-14,0-26,3s-15,8-17,11s-4,10-1,18
			C57.73,135.23,72.06,146.45,72.06,146.45z"/>
	</g>
	<polygon class="st0" points="345.06,151.45 308.06,71.45 300.06,71.45 263.06,151.45 276.06,151.45 304.06,90.45 318.29,121.45 
		296.06,121.45 291.06,133.45 323.8,133.45 332.06,151.45 	"/>
	<polygon class="st0" points="689.06,151.45 652.06,71.45 644.06,71.45 607.06,151.45 620.06,151.45 648.06,90.45 662.29,121.45 
		640.06,121.45 635.06,133.45 667.8,133.45 676.06,151.45 	"/>
	<polygon class="st0" points="323.06,71.45 323.06,82.45 353.06,82.45 353.06,151.45 364.06,151.45 364.06,82.45 392.06,82.45 
		392.06,151.45 403.06,151.45 403.06,117.45 446.06,117.45 446.06,151.45 458.06,151.45 458.06,71.45 446.06,71.45 446.06,105.45 
		403.06,105.45 403.06,71.45 	"/>
	<polygon class="st0" points="469.06,71.45 522.06,71.45 522.06,82.45 480.06,82.45 480.06,105.45 522.06,105.45 522.06,117.45 
		480.06,117.45 480.06,140.45 522.06,140.45 522.06,151.45 469.06,151.45 	"/>
	<polygon class="st0" points="533.06,71.45 543.06,71.45 593.06,130.45 593.06,71.45 604.06,71.45 604.06,151.45 594.06,151.45 
		544.06,92.45 544.06,151.45 533.06,151.45 	"/>
	<g>
		<polygon class="st0" points="969.06,71.45 969.06,82.45 942.06,82.45 942.06,151.45 931.06,151.45 931.06,82.45 871.06,82.45 
			871.06,107.45 906.06,107.45 906.06,118.45 871.06,118.45 871.06,151.45 860.06,151.45 860.06,71.45 		"/>
		<path class="st0" d="M691.06,151.45l5-11h43h9.25c2.07,0,3.75-1.68,3.75-3.75v-15.5c0-2.07-1.68-3.75-3.75-3.75h-42
			c-8.42,0-15.25-6.83-15.25-15.25v-8.75v-7.9c0-7.79,6.31-14.1,14.1-14.1h53.9v11h-53.25c-2.07,0-3.75,1.68-3.75,3.75v15.5
			c0,2.07,1.68,3.75,3.75,3.75h43c8.42,0,15.25,6.83,15.25,15.25v15.5c0,8.42-6.83,15.25-15.25,15.25H691.06z"/>
		<path class="st0" d="M789.31,71.45c-8.42,0-15.25,6.83-15.25,15.25v49.5c0,8.42,6.83,15.25,15.25,15.25h43.5
			c8.42,0,15.25-6.83,15.25-15.25V71.45H789.31z M836.56,135.27c0,2.07-1.68,3.75-3.75,3.75h-43.5c-2.07,0-3.75-1.68-3.75-3.75
			V87.63c0-2.07,1.68-3.75,3.75-3.75h43.5c2.07,0,3.75,1.68,3.75,3.75V135.27z"/>
	</g>
	<g>
		<path class="st0" d="M1006.33,25.97c7.18,0,13,5.82,13,13s-5.82,13-13,13s-13-5.82-13-13S999.16,25.97,1006.33,25.97
			 M1006.33,24.37c-8.05,0-14.6,6.55-14.6,14.6s6.55,14.6,14.6,14.6s14.6-6.55,14.6-14.6S1014.39,24.37,1006.33,24.37L1006.33,24.37
			z"/>
		<g>
			<path class="st0" d="M999.71,46.49V31.45h6.67c1.34,0,2.36,0.13,3.06,0.41c0.7,0.27,1.25,0.75,1.67,1.43
				c0.42,0.68,0.63,1.44,0.63,2.27c0,1.07-0.35,1.97-1.04,2.7c-0.69,0.73-1.76,1.2-3.2,1.39c0.53,0.25,0.93,0.5,1.2,0.75
				c0.58,0.53,1.13,1.2,1.65,2l2.61,4.09h-2.5l-1.99-3.13c-0.58-0.9-1.06-1.59-1.44-2.07c-0.38-0.48-0.71-0.81-1.01-1
				c-0.3-0.19-0.6-0.33-0.91-0.4c-0.23-0.05-0.59-0.07-1.11-0.07h-2.31v6.68H999.71z M1001.7,38.09h4.28c0.91,0,1.62-0.09,2.13-0.28
				c0.51-0.19,0.9-0.49,1.17-0.9c0.27-0.41,0.4-0.86,0.4-1.35c0-0.71-0.26-1.29-0.77-1.75c-0.52-0.46-1.33-0.69-2.45-0.69h-4.76
				V38.09z"/>
		</g>
	</g>
</g>
</svg>
