<?xml version="1.0" standalone="no"?>
<!DOCTYPE svg PUBLIC "-//W3C//DTD SVG 1.1//EN" "http://www.w3.org/Graphics/SVG/1.1/DTD/svg11.dtd">
<!--Generator: Xara Designer (www.xara.com), SVG filter version: 6.3.0.31-->
<svg fill="none" fill-rule="evenodd" stroke="black" stroke-width="0.501" stroke-linejoin="bevel" stroke-miterlimit="10" font-family="Times New Roman" font-size="16" style="font-variant-ligatures:none" xmlns:xlink="http://www.w3.org/1999/xlink" xmlns="http://www.w3.org/2000/svg" version="1.1" overflow="visible" width="290.16pt" height="70.199pt" viewBox="514.776 -709.336 290.16 70.199">
 <defs>
	</defs>
 <g id="Layer 1" transform="scale(1 -1)">
  <path d="M 801.408,674.92 C 801.408,673.696 801.336,672.616 801.336,671.752 C 801.264,670.888 801.121,670.24 800.977,669.808 C 800.76,668.656 800.111,667.936 799.176,667.648 C 798.312,667.216 796.656,667 794.279,667 C 794.279,667 780.744,667 780.744,667 C 780.744,667 780.744,684.856 780.744,684.856 C 780.744,684.856 793.633,684.856 793.633,684.856 C 796.873,684.856 798.961,684.352 799.969,683.344 C 800.904,682.408 801.408,680.248 801.408,676.936 C 801.408,676.936 801.408,674.92 801.408,674.92 Z M 804.432,674.92 C 804.432,676.72 804.359,678.232 804.289,679.456 C 804.217,680.68 804.072,681.616 803.928,682.336 C 803.424,684.352 802.344,685.792 800.688,686.656 C 799.031,687.592 796.584,688.024 793.344,688.024 C 793.344,688.024 777.936,688.024 777.936,688.024 C 777.721,688.024 777.648,687.88 777.648,687.664 C 777.648,687.664 777.648,664.192 777.648,664.192 C 777.648,663.976 777.721,663.832 777.936,663.832 C 777.936,663.832 793.992,663.832 793.992,663.832 C 796.152,663.832 797.951,664.048 799.393,664.48 C 800.832,664.84 801.912,665.416 802.561,666.208 C 803.209,666.928 803.713,668.008 804,669.448 C 804.289,670.888 804.432,672.76 804.432,674.92 C 804.432,674.92 804.432,674.92 804.432,674.92 Z M 774.695,674.92 C 774.695,674.92 774.695,687.664 774.695,687.664 C 774.695,687.88 774.553,688.024 774.336,688.024 C 774.336,688.024 771.961,688.024 771.961,688.024 C 771.744,688.024 771.6,687.88 771.6,687.664 C 771.6,687.664 771.6,674.92 771.6,674.92 C 771.6,673.624 771.527,672.472 771.457,671.536 C 771.385,670.6 771.168,669.88 770.881,669.304 C 770.52,668.296 769.729,667.648 768.504,667.36 C 767.496,667.144 765.553,667 762.744,667 C 762.744,667 759.145,667 759.145,667 C 756.264,667 754.393,667.144 753.385,667.36 C 752.16,667.648 751.297,668.296 750.863,669.304 C 750.359,670.456 750.145,672.328 750.145,674.92 C 750.145,674.92 750.145,687.664 750.145,687.664 C 750.145,687.88 750,688.024 749.783,688.024 C 749.783,688.024 747.336,688.024 747.336,688.024 C 747.191,688.024 747.049,687.88 747.049,687.664 C 747.049,687.664 747.049,674.92 747.049,674.92 C 747.049,673.336 747.121,671.896 747.336,670.744 C 747.48,669.52 747.768,668.512 748.129,667.792 C 748.488,667 748.992,666.352 749.568,665.848 C 750.217,665.272 750.936,664.912 751.873,664.624 C 751.873,664.552 751.943,664.552 751.943,664.552 C 752.664,664.336 753.672,664.192 754.824,664.048 C 756.049,663.904 757.488,663.832 759.145,663.832 C 759.145,663.832 762.744,663.832 762.744,663.832 C 764.4,663.832 765.84,663.904 766.992,664.048 C 768.217,664.192 769.152,664.336 769.873,664.552 C 769.873,664.552 769.873,664.552 769.873,664.552 C 769.873,664.552 769.873,664.552 769.873,664.624 C 771.672,665.128 772.969,666.208 773.615,667.792 C 774.336,669.304 774.695,671.68 774.695,674.92 C 774.695,674.92 774.695,674.92 774.695,674.92 Z M 740.209,681.4 C 740.209,680.032 739.775,679.096 738.984,678.664 C 738.408,678.232 737.4,678.016 735.889,678.016 C 735.889,678.016 720.984,678.016 720.984,678.016 C 720.984,678.016 720.984,684.856 720.984,684.856 C 720.984,684.856 735.816,684.856 735.816,684.856 C 737.256,684.856 738.408,684.568 739.129,683.992 C 739.848,683.488 740.209,682.624 740.209,681.4 C 740.209,681.4 740.209,681.4 740.209,681.4 Z M 741.359,671.032 C 741.359,669.664 741,668.656 740.279,668.008 C 739.561,667.288 738.408,667 736.896,667 C 736.896,667 720.984,667 720.984,667 C 720.984,667 720.984,674.92 720.984,674.92 C 720.984,674.92 736.752,674.92 736.752,674.92 C 737.545,674.92 738.264,674.848 738.84,674.704 C 739.416,674.632 739.848,674.416 740.209,674.2 C 741,673.624 741.359,672.544 741.359,671.032 C 741.359,671.032 741.359,671.032 741.359,671.032 Z M 744.457,671.032 C 744.457,673.912 743.447,675.784 741.504,676.72 C 742.729,677.728 743.305,679.384 743.305,681.832 C 743.305,685.936 740.496,688.024 734.881,688.024 C 734.881,688.024 718.248,688.024 718.248,688.024 C 717.961,688.024 717.889,687.88 717.889,687.664 C 717.889,687.664 717.889,664.192 717.889,664.192 C 717.889,663.976 717.961,663.832 718.248,663.832 C 718.248,663.832 735.961,663.832 735.961,663.832 C 737.328,663.832 738.553,663.976 739.561,664.192 C 740.568,664.408 741.432,664.768 742.08,665.272 C 742.943,665.848 743.52,666.64 743.881,667.648 C 744.24,668.584 744.457,669.736 744.457,671.032 C 744.457,671.032 744.457,671.032 744.457,671.032 Z M 628.608,681.4 C 628.608,679.168 627.096,678.016 624.072,678.016 C 624.072,678.016 609.384,678.016 609.384,678.016 C 609.384,678.016 609.384,684.712 609.384,684.712 C 609.384,684.712 624.216,684.712 624.216,684.712 C 627.168,684.712 628.608,683.632 628.608,681.4 C 628.608,681.4 628.608,681.4 628.608,681.4 Z M 632.496,663.832 C 632.712,663.832 632.784,663.976 632.784,664.192 C 632.784,664.192 632.784,671.032 632.784,671.032 C 632.784,671.752 632.712,672.472 632.64,673.048 C 632.568,673.696 632.352,674.272 632.136,674.776 C 631.632,675.856 630.912,676.576 629.976,677.008 C 630.552,677.368 630.984,677.944 631.272,678.736 C 631.56,679.528 631.704,680.464 631.704,681.544 C 631.704,685.864 628.968,688.024 623.568,688.024 C 623.568,688.024 606.576,688.024 606.576,688.024 C 606.36,688.024 606.288,687.88 606.288,687.664 C 606.288,687.664 606.288,664.192 606.288,664.192 C 606.288,663.976 606.36,663.832 606.576,663.832 C 606.576,663.832 609.024,663.832 609.024,663.832 C 609.24,663.832 609.384,663.976 609.384,664.192 C 609.384,664.192 609.384,674.704 609.384,674.704 C 609.384,674.704 624.864,674.704 624.864,674.704 C 625.872,674.704 626.736,674.56 627.384,674.416 C 628.104,674.2 628.608,673.912 628.968,673.48 C 629.256,673.12 629.472,672.616 629.616,672.04 C 629.76,671.464 629.832,670.816 629.832,669.952 C 629.832,669.664 629.832,669.304 629.76,668.872 C 629.76,668.44 629.688,667.864 629.688,667.216 C 629.616,665.848 629.544,664.84 629.544,664.192 C 629.544,663.976 629.688,663.832 629.904,663.832 C 629.904,663.832 632.496,663.832 632.496,663.832 C 632.496,663.832 632.496,663.832 632.496,663.832 Z M 604.128,663.832 C 604.344,663.832 604.416,663.976 604.416,664.192 C 604.416,664.192 604.416,666.64 604.416,666.64 C 604.416,666.856 604.344,667 604.128,667 C 604.128,667 586.488,667 586.488,667 C 586.488,667 586.488,674.704 586.488,674.704 C 586.488,674.704 603.552,674.704 603.552,674.704 C 603.768,674.704 603.84,674.848 603.84,675.064 C 603.84,675.064 603.84,677.44 603.84,677.44 C 603.84,677.728 603.768,677.872 603.552,677.872 C 603.552,677.872 586.488,677.872 586.488,677.872 C 586.488,677.872 586.488,684.856 586.488,684.856 C 586.488,684.856 604.128,684.856 604.128,684.856 C 604.344,684.856 604.416,685 604.416,685.216 C 604.416,685.216 604.416,687.664 604.416,687.664 C 604.416,687.88 604.344,688.024 604.128,688.024 C 604.128,688.024 583.752,688.024 583.752,688.024 C 583.464,688.024 583.392,687.88 583.392,687.664 C 583.392,687.664 583.392,664.192 583.392,664.192 C 583.392,663.976 583.464,663.832 583.752,663.832 C 583.752,663.832 604.128,663.832 604.128,663.832 C 604.128,663.832 604.128,663.832 604.128,663.832 Z M 581.448,684.856 C 581.664,684.856 581.808,685 581.808,685.216 C 581.808,685.216 581.808,687.664 581.808,687.664 C 581.808,687.88 581.664,688.024 581.448,688.024 C 581.448,688.024 556.536,688.024 556.536,688.024 C 556.32,688.024 556.176,687.88 556.176,687.664 C 556.176,687.664 556.176,685.216 556.176,685.216 C 556.176,685 556.32,684.856 556.536,684.856 C 556.536,684.856 567.48,684.856 567.48,684.856 C 567.48,684.856 567.48,664.192 567.48,664.192 C 567.48,663.976 567.552,663.832 567.768,663.832 C 567.768,663.832 570.144,663.832 570.144,663.832 C 570.36,663.832 570.504,663.976 570.504,664.192 C 570.504,664.192 570.504,684.856 570.504,684.856 C 570.504,684.856 581.448,684.856 581.448,684.856 C 581.448,684.856 581.448,684.856 581.448,684.856 Z M 554.232,663.832 C 554.448,663.832 554.592,663.976 554.592,664.192 C 554.592,664.192 554.592,687.664 554.592,687.664 C 554.592,687.88 554.448,688.024 554.232,688.024 C 554.232,688.024 551.856,688.024 551.856,688.024 C 551.568,688.024 551.424,687.88 551.424,687.664 C 551.424,687.664 551.424,667.504 551.424,667.504 C 551.424,667.504 534.36,687.88 534.36,687.88 C 534.216,687.952 534.144,688.024 534.072,688.024 C 534.072,688.024 528.744,688.024 528.744,688.024 C 528.528,688.024 528.384,687.88 528.384,687.664 C 528.384,687.664 528.384,664.192 528.384,664.192 C 528.384,663.976 528.528,663.832 528.744,663.832 C 528.744,663.832 531.12,663.832 531.12,663.832 C 531.408,663.832 531.48,663.976 531.48,664.192 C 531.48,664.192 531.48,685.432 531.48,685.432 C 531.48,685.432 532.272,685.432 532.272,685.432 C 532.272,685.432 550.56,663.976 550.56,663.976 C 550.56,663.904 550.632,663.832 550.776,663.832 C 550.776,663.832 554.232,663.832 554.232,663.832 C 554.232,663.832 554.232,663.832 554.232,663.832 Z M 525.216,663.832 C 525.36,663.832 525.432,663.976 525.432,664.192 C 525.432,664.192 525.432,687.664 525.432,687.664 C 525.432,687.88 525.36,688.024 525.216,688.024 C 525.216,688.024 523.344,688.024 523.344,688.024 C 523.128,688.024 522.984,687.88 522.984,687.664 C 522.984,687.664 522.984,664.192 522.984,664.192 C 522.984,663.976 523.128,663.832 523.344,663.832 C 523.344,663.832 525.216,663.832 525.216,663.832 C 525.216,663.832 525.216,663.832 525.216,663.832 Z" fill="#5a5a5a" stroke="none" stroke-width="0.25" fill-rule="nonzero" stroke-linejoin="miter" marker-start="none" marker-end="none"/>
  <path d="M 714.504,663.832 C 714.721,663.832 714.863,663.976 714.863,664.192 C 714.863,664.192 714.863,687.664 714.863,687.664 C 714.863,687.88 714.721,688.024 714.504,688.024 C 714.504,688.024 712.129,688.024 712.129,688.024 C 711.84,688.024 711.695,687.88 711.695,687.664 C 711.695,687.664 711.695,667.504 711.695,667.504 C 711.695,667.504 694.704,687.88 694.704,687.88 C 694.561,687.952 694.488,688.024 694.416,688.024 C 694.416,688.024 689.088,688.024 689.088,688.024 C 688.872,688.024 688.801,687.88 688.801,687.664 C 688.801,687.664 688.801,664.192 688.801,664.192 C 688.801,663.976 688.872,663.832 689.088,663.832 C 689.088,663.832 691.536,663.832 691.536,663.832 C 691.752,663.832 691.824,663.976 691.824,664.192 C 691.824,664.192 691.824,685.432 691.824,685.432 C 691.824,685.432 692.616,685.432 692.616,685.432 C 692.616,685.432 710.832,663.976 710.832,663.976 C 710.904,663.904 710.977,663.832 711.049,663.832 C 711.049,663.832 714.504,663.832 714.504,663.832 Z M 686.641,663.832 C 686.855,663.832 686.928,663.976 686.928,664.192 C 686.928,664.192 686.928,666.64 686.928,666.64 C 686.928,666.856 686.855,667 686.641,667 C 686.641,667 669,667 669,667 C 669,667 669,674.704 669,674.704 C 669,674.704 686.064,674.704 686.064,674.704 C 686.28,674.704 686.352,674.848 686.352,675.064 C 686.352,675.064 686.352,677.44 686.352,677.44 C 686.352,677.728 686.28,677.872 686.064,677.872 C 686.064,677.872 669,677.872 669,677.872 C 669,677.872 669,684.856 669,684.856 C 669,684.856 686.641,684.856 686.641,684.856 C 686.855,684.856 686.928,685 686.928,685.216 C 686.928,685.216 686.928,687.664 686.928,687.664 C 686.928,687.88 686.855,688.024 686.641,688.024 C 686.641,688.024 666.191,688.024 666.191,688.024 C 665.977,688.024 665.904,687.88 665.904,687.664 C 665.904,687.664 665.904,664.192 665.904,664.192 C 665.904,663.976 665.977,663.832 666.191,663.832 C 666.191,663.832 686.641,663.832 686.641,663.832 C 686.641,663.832 686.641,663.832 686.641,663.832 Z M 662.952,671.104 C 662.952,671.104 662.952,671.104 662.881,671.104 C 662.881,671.104 662.881,671.104 662.881,671.104 C 662.881,671.104 660.432,671.104 660.432,671.104 C 660.217,671.104 660.145,671.032 660.145,670.816 C 660.145,670.816 660.145,670.672 660.145,670.672 C 660.145,669.088 659.568,668.08 658.561,667.576 C 657.696,667.144 656.328,666.928 654.528,666.928 C 654.528,666.928 645.672,666.928 645.672,666.928 C 642.504,666.928 640.488,667.432 639.624,668.44 C 639.264,668.944 638.976,669.664 638.76,670.744 C 638.616,671.824 638.472,673.264 638.472,674.92 C 638.472,676.504 638.544,677.728 638.544,678.736 C 638.544,679.744 638.616,680.464 638.76,680.896 C 638.976,682.48 639.624,683.56 640.632,684.136 C 641.136,684.424 641.856,684.64 642.792,684.856 C 643.728,685 644.88,685.144 646.32,685.144 C 646.32,685.144 654.528,685.144 654.528,685.144 C 658.2,685.144 660.072,683.848 660.072,681.328 C 660.072,681.328 660.072,681.256 660.072,681.256 C 660.072,681.04 660.217,680.896 660.432,680.896 C 660.432,680.896 662.809,680.896 662.809,680.896 C 663.023,680.896 663.168,681.04 663.168,681.256 C 663.168,681.256 663.168,681.328 663.168,681.328 C 663.168,683.632 662.448,685.36 661.008,686.512 C 659.568,687.664 657.408,688.24 654.528,688.24 C 654.528,688.24 646.536,688.24 646.536,688.24 C 642.216,688.24 639.336,687.448 637.752,685.936 C 637.752,685.936 637.824,685.936 637.824,685.936 C 636.24,684.424 635.448,681.472 635.448,677.152 C 635.448,673.408 635.52,670.96 635.808,669.664 C 635.952,668.656 636.312,667.72 636.816,667 C 637.248,666.28 637.824,665.704 638.544,665.2 C 639.336,664.696 640.344,664.408 641.568,664.192 C 642.792,663.976 644.232,663.832 645.888,663.832 C 645.888,663.832 654.6,663.832 654.6,663.832 C 657.336,663.832 659.352,664.264 660.721,665.2 C 662.376,666.352 663.168,668.224 663.168,670.816 C 663.168,670.888 663.168,670.888 663.168,670.96 C 663.168,670.96 662.952,671.104 662.952,671.104 C 662.952,671.104 662.952,671.104 662.952,671.104 Z" fill="#ee6f00" stroke="none" stroke-width="0.25" fill-rule="nonzero" stroke-linejoin="miter" marker-start="none" marker-end="none"/>
  <path d="M 524.352,709.336 C 523.272,709.336 522.408,708.472 522.408,707.392 C 522.408,706.312 523.272,705.376 524.352,705.376 C 525.504,705.376 526.368,706.312 526.368,707.392 C 526.368,708.472 525.504,709.336 524.352,709.336 Z M 520.608,705.448 C 521.76,705.448 522.624,704.584 522.624,703.504 C 522.624,702.424 521.76,701.488 520.608,701.488 C 519.528,701.488 518.664,702.424 518.664,703.504 C 518.664,704.584 519.528,705.448 520.608,705.448 C 520.608,705.448 520.608,705.448 520.608,705.448 Z M 528.456,705.448 C 529.536,705.448 530.472,704.512 530.472,703.432 C 530.472,702.352 529.536,701.488 528.456,701.488 C 527.376,701.488 526.512,702.352 526.512,703.432 C 526.512,704.512 527.376,705.448 528.456,705.448 C 528.456,705.448 528.456,705.448 528.456,705.448 Z M 516.792,701.416 C 517.872,701.416 518.736,700.48 518.736,699.4 C 518.736,698.32 517.872,697.456 516.792,697.456 C 515.712,697.456 514.776,698.32 514.776,699.4 C 514.776,700.48 515.712,701.416 516.792,701.416 C 516.792,701.416 516.792,701.416 516.792,701.416 Z M 524.352,701.416 C 525.504,701.416 526.368,700.552 526.368,699.472 C 526.368,698.392 525.504,697.456 524.352,697.456 C 523.272,697.456 522.408,698.392 522.408,699.472 C 522.408,700.552 523.272,701.416 524.352,701.416 C 524.352,701.416 524.352,701.416 524.352,701.416 Z M 532.416,701.344 C 531.264,701.344 530.4,700.48 530.4,699.4 C 530.4,698.32 531.264,697.384 532.416,697.384 C 533.496,697.384 534.36,698.32 534.36,699.4 C 534.36,700.48 533.496,701.344 532.416,701.344 C 532.416,701.344 532.416,701.344 532.416,701.344 Z M 520.536,697.816 C 519.456,697.816 518.592,696.952 518.592,695.872 C 518.592,694.72 519.456,693.856 520.536,693.856 C 521.688,693.856 522.552,694.72 522.552,695.872 C 522.552,696.952 521.688,697.816 520.536,697.816 C 520.536,697.816 520.536,697.816 520.536,697.816 Z M 528.456,697.744 C 529.536,697.744 530.472,696.88 530.472,695.8 C 530.472,694.648 529.536,693.784 528.456,693.784 C 527.376,693.784 526.512,694.648 526.512,695.8 C 526.512,696.88 527.376,697.744 528.456,697.744 C 528.456,697.744 528.456,697.744 528.456,697.744 Z M 524.352,694 C 525.504,694 526.368,693.064 526.368,691.984 C 526.368,690.904 525.504,690.04 524.352,690.04 C 523.272,690.04 522.408,690.904 522.408,691.984 C 522.408,693.064 523.272,694 524.352,694 C 524.352,694 524.352,694 524.352,694 Z" fill="#5a5a5a" stroke="none" stroke-width="0.25" fill-rule="nonzero" stroke-linejoin="miter" marker-start="none" marker-end="none"/>
  <path d="M 788.016,650.44 C 788.016,650.44 789.457,650.44 789.457,650.44 C 789.457,650.44 790.104,652.312 790.104,652.312 C 790.104,652.312 788.664,652.312 788.664,652.312 C 788.664,652.312 788.016,650.44 788.016,650.44 Z M 804.936,648.928 C 804.936,648.928 804.936,649 804.936,649 C 804.936,649.072 804.863,649.144 804.793,649.144 C 804.793,649.144 803.928,649.144 803.928,649.144 C 803.928,649.144 803.855,649.072 803.783,648.928 C 803.783,648.928 801.553,643.385 801.553,643.385 C 801.553,643.385 799.393,648.928 799.393,648.928 C 799.32,649.072 799.248,649.144 799.176,649.144 C 799.176,649.144 798.312,649.144 798.312,649.144 C 798.24,649.144 798.24,649.072 798.168,648.928 C 798.168,648.928 795.936,643.385 795.936,643.385 C 795.936,643.385 793.775,648.928 793.775,648.928 C 793.705,649.072 793.633,649.144 793.561,649.144 C 793.561,649.144 792.768,649.144 792.768,649.144 C 792.695,649.144 792.625,649.072 792.625,649 C 792.625,649 792.625,648.928 792.625,648.928 C 792.625,648.928 795.359,642.232 795.359,642.232 C 795.359,642.16 795.432,642.088 795.504,642.088 C 795.504,642.088 796.439,642.088 796.439,642.088 C 796.512,642.088 796.584,642.16 796.584,642.232 C 796.584,642.232 798.744,647.704 798.744,647.704 C 798.744,647.704 800.904,642.232 800.904,642.232 C 800.977,642.16 801.049,642.088 801.121,642.088 C 801.121,642.088 802.057,642.088 802.057,642.088 C 802.129,642.088 802.199,642.16 802.199,642.232 C 802.199,642.232 804.936,648.928 804.936,648.928 C 804.936,648.928 804.936,648.928 804.936,648.928 Z M 791.041,644.824 C 791.041,643.672 790.607,643.096 789.672,643.096 C 789.672,643.096 787.801,643.096 787.801,643.096 C 786.863,643.096 786.359,643.672 786.359,644.824 C 786.359,644.824 786.359,646.336 786.359,646.336 C 786.359,647.488 786.863,648.064 787.801,648.064 C 787.801,648.064 789.672,648.064 789.672,648.064 C 790.607,648.064 791.041,647.488 791.041,646.336 C 791.041,646.336 791.041,644.824 791.041,644.824 C 791.041,644.824 791.041,644.824 791.041,644.824 Z M 791.977,644.824 C 791.977,644.824 791.977,646.336 791.977,646.336 C 791.977,646.84 791.977,647.2 791.832,647.56 C 791.76,647.92 791.615,648.208 791.4,648.424 C 790.969,648.928 790.393,649.144 789.744,649.144 C 789.744,649.144 787.729,649.144 787.729,649.144 C 787.367,649.144 787.008,649.072 786.721,648.928 C 786.432,648.856 786.217,648.64 786,648.424 C 785.568,647.992 785.424,647.272 785.424,646.336 C 785.424,646.336 785.424,644.824 785.424,644.824 C 785.424,643.023 786.145,642.088 787.729,642.088 C 787.729,642.088 789.744,642.088 789.744,642.088 C 790.393,642.088 790.969,642.305 791.4,642.736 C 791.76,643.24 791.977,643.889 791.977,644.824 C 791.977,644.824 791.977,644.824 791.977,644.824 Z M 784.344,646.768 C 784.416,646.768 784.488,646.768 784.488,646.84 C 784.488,647.704 784.271,648.28 783.984,648.712 C 783.695,649 783.191,649.144 782.473,649.144 C 782.473,649.144 779.881,649.144 779.881,649.144 C 779.447,649.144 779.016,649 778.656,648.784 C 778.297,648.424 778.08,647.92 778.08,647.344 C 778.08,646.912 778.152,646.48 778.225,646.191 C 778.297,645.832 778.512,645.616 778.801,645.544 C 779.016,645.473 779.232,645.4 779.52,645.4 C 779.736,645.4 780.023,645.4 780.312,645.4 C 780.312,645.4 780.744,645.4 780.744,645.4 C 781.031,645.4 781.393,645.328 781.68,645.328 C 782.041,645.328 782.328,645.256 782.615,645.184 C 782.832,645.111 783.121,644.969 783.264,644.824 C 783.408,644.68 783.553,644.464 783.553,644.248 C 783.553,643.816 783.48,643.527 783.264,643.385 C 783.121,643.24 782.904,643.168 782.545,643.168 C 782.545,643.168 779.881,643.168 779.881,643.168 C 779.736,643.168 779.592,643.168 779.447,643.168 C 779.305,643.24 779.232,643.312 779.16,643.385 C 779.088,643.527 779.016,643.889 779.016,644.393 C 779.016,644.464 779.016,644.464 778.873,644.464 C 778.873,644.464 778.225,644.464 778.225,644.464 C 778.152,644.464 778.08,644.464 778.08,644.393 C 778.08,643.527 778.225,642.952 778.439,642.592 C 778.584,642.448 778.729,642.305 779.016,642.232 C 779.232,642.16 779.52,642.088 779.809,642.088 C 779.809,642.088 782.545,642.088 782.545,642.088 C 783.84,642.088 784.416,642.664 784.416,643.889 C 784.416,644.32 784.344,644.752 784.271,645.04 C 784.129,645.4 783.984,645.688 783.695,645.904 C 783.553,646.048 783.264,646.12 783.049,646.264 C 782.76,646.336 782.473,646.408 782.041,646.408 C 781.896,646.408 781.752,646.408 781.607,646.408 C 781.535,646.408 781.393,646.408 781.248,646.408 C 780.744,646.48 780.457,646.48 780.168,646.48 C 779.951,646.48 779.809,646.48 779.809,646.48 C 779.809,646.553 779.736,646.553 779.736,646.553 C 779.592,646.553 779.447,646.553 779.377,646.553 C 779.305,646.553 779.232,646.553 779.16,646.624 C 779.088,646.624 779.088,646.624 779.088,646.695 C 779.016,646.768 779.016,646.84 779.016,646.984 C 779.016,647.416 779.088,647.704 779.16,647.848 C 779.305,647.992 779.52,648.064 779.809,648.064 C 779.809,648.064 782.615,648.064 782.615,648.064 C 782.977,648.064 783.191,647.992 783.336,647.848 C 783.408,647.776 783.48,647.632 783.48,647.488 C 783.553,647.344 783.553,647.128 783.553,646.84 C 783.553,646.768 783.553,646.768 783.625,646.768 C 783.625,646.768 784.344,646.768 784.344,646.768 C 784.344,646.768 784.344,646.768 784.344,646.768 Z M 777.721,649 C 777.721,649 777.721,649.072 777.721,649.072 C 777.721,649.144 777.648,649.216 777.576,649.216 C 777.576,649.216 776.783,649.216 776.783,649.216 C 776.713,649.216 776.713,649.144 776.641,649 C 776.641,649 774.408,643.385 774.408,643.385 C 774.408,643.385 772.248,649 772.248,649 C 772.248,649.144 772.176,649.216 772.104,649.216 C 772.104,649.216 771.312,649.216 771.312,649.216 C 771.24,649.216 771.168,649.144 771.168,649.072 C 771.168,649.072 771.168,649 771.168,649 C 771.168,649 773.832,642.16 773.832,642.16 C 773.76,641.943 773.688,641.729 773.545,641.512 C 773.4,641.296 773.256,641.152 773.111,640.936 C 772.824,640.576 772.465,640.432 772.104,640.432 C 772.031,640.432 772.031,640.359 772.031,640.288 C 772.031,640.288 772.031,639.279 772.031,639.279 C 772.031,639.208 772.031,639.137 772.104,639.137 C 773.256,639.137 774.191,640.145 775.057,642.16 C 775.057,642.16 777.721,649 777.721,649 C 777.721,649 777.721,649 777.721,649 Z M 770.881,646.191 C 770.951,646.191 771.023,646.264 771.023,646.336 C 771.023,647.272 770.809,647.992 770.377,648.424 C 770.016,648.928 769.439,649.144 768.721,649.144 C 768.721,649.144 766.344,649.144 766.344,649.144 C 766.057,649.144 765.768,649 765.48,648.856 C 765.191,648.64 764.977,648.352 764.76,647.92 C 764.76,647.92 764.76,647.92 764.76,647.92 C 764.76,647.92 764.76,647.92 764.76,647.848 C 764.688,647.776 764.688,647.632 764.615,647.344 C 764.545,647.128 764.545,646.768 764.545,646.336 C 764.545,646.336 764.545,642.16 764.545,642.16 C 764.545,642.088 764.545,642.088 764.615,642.088 C 764.615,642.088 765.336,642.088 765.336,642.088 C 765.408,642.088 765.48,642.088 765.48,642.16 C 765.48,642.16 765.48,646.336 765.48,646.336 C 765.48,646.912 765.553,647.344 765.84,647.632 C 766.057,647.92 766.416,648.064 766.848,648.064 C 766.848,648.064 768.648,648.064 768.648,648.064 C 769.584,648.064 770.088,647.488 770.088,646.336 C 770.088,646.264 770.088,646.191 770.16,646.191 C 770.16,646.191 770.881,646.191 770.881,646.191 C 770.881,646.191 770.881,646.191 770.881,646.191 Z M 762.744,644.824 C 762.744,643.672 762.312,643.096 761.377,643.096 C 761.377,643.096 759.504,643.096 759.504,643.096 C 758.568,643.096 758.064,643.672 758.064,644.824 C 758.064,644.824 758.064,646.336 758.064,646.336 C 758.064,647.488 758.568,648.064 759.504,648.064 C 759.504,648.064 761.377,648.064 761.377,648.064 C 762.312,648.064 762.744,647.488 762.744,646.336 C 762.744,646.336 762.744,644.824 762.744,644.824 C 762.744,644.824 762.744,644.824 762.744,644.824 Z M 763.68,644.824 C 763.68,644.824 763.68,646.336 763.68,646.336 C 763.68,646.84 763.68,647.2 763.535,647.56 C 763.465,647.92 763.32,648.208 763.104,648.424 C 762.672,648.928 762.096,649.144 761.447,649.144 C 761.447,649.144 759.432,649.144 759.432,649.144 C 759.072,649.144 758.713,649.072 758.424,648.928 C 758.137,648.856 757.92,648.64 757.705,648.424 C 757.271,647.992 757.129,647.272 757.129,646.336 C 757.129,646.336 757.129,644.824 757.129,644.824 C 757.129,643.023 757.848,642.088 759.432,642.088 C 759.432,642.088 761.447,642.088 761.447,642.088 C 762.096,642.088 762.672,642.305 763.104,642.736 C 763.465,643.24 763.68,643.889 763.68,644.824 C 763.68,644.824 763.68,644.824 763.68,644.824 Z M 756.695,644.104 C 756.625,644.104 756.625,644.176 756.625,644.176 C 756.625,644.176 755.832,644.176 755.832,644.176 C 755.76,644.176 755.688,644.104 755.688,644.032 C 755.688,643.672 755.615,643.456 755.4,643.312 C 755.256,643.24 755.041,643.168 754.824,643.168 C 754.824,643.168 753.385,643.168 753.385,643.168 C 753.096,643.168 752.809,643.24 752.664,643.527 C 752.52,643.744 752.447,644.104 752.447,644.607 C 752.447,644.607 752.447,647.92 752.447,647.92 C 752.447,647.92 756.049,647.92 756.049,647.92 C 756.191,647.92 756.191,647.92 756.191,648.064 C 756.191,648.064 756.191,649.072 756.191,649.072 C 756.191,649.144 756.191,649.144 756.049,649.144 C 756.049,649.144 752.447,649.144 752.447,649.144 C 752.447,649.144 752.447,650.368 752.447,650.368 C 752.447,650.44 752.447,650.44 752.377,650.44 C 752.377,650.44 751.584,650.44 751.584,650.44 C 751.512,650.44 751.512,650.44 751.512,650.368 C 751.512,650.368 751.512,649.144 751.512,649.144 C 751.512,649.144 751.008,649.144 751.008,649.144 C 750.936,649.144 750.863,649.144 750.863,649.072 C 750.863,649.072 750.863,648.064 750.863,648.064 C 750.863,647.92 750.936,647.92 751.008,647.92 C 751.008,647.92 751.512,647.92 751.512,647.92 C 751.512,647.776 751.512,647.632 751.512,647.488 C 751.512,647.344 751.439,647.128 751.439,646.84 C 751.439,646.336 751.439,645.904 751.439,645.544 C 751.439,644.536 751.512,643.744 751.801,643.168 C 751.943,642.809 752.16,642.52 752.377,642.376 C 752.664,642.16 752.951,642.088 753.385,642.088 C 753.385,642.088 754.824,642.088 754.824,642.088 C 755.111,642.088 755.328,642.088 755.545,642.16 C 755.76,642.232 755.904,642.376 756.049,642.52 C 756.336,642.664 756.48,642.952 756.553,643.168 C 756.695,643.385 756.695,643.672 756.695,644.032 C 756.695,644.032 756.695,644.032 756.695,644.032 C 756.695,644.032 756.695,644.104 756.695,644.104 C 756.695,644.104 756.695,644.104 756.695,644.104 Z M 750.145,642.088 C 750.217,642.088 750.289,642.088 750.289,642.16 C 750.289,642.16 750.289,643.023 750.289,643.023 C 750.289,643.096 750.217,643.168 750.145,643.168 C 750.145,643.168 746.184,643.168 746.184,643.168 C 746.184,643.168 750.289,648.208 750.289,648.208 C 750.289,648.208 750.289,649 750.289,649 C 750.289,649.072 750.217,649.144 750.145,649.144 C 750.145,649.144 744.889,649.144 744.889,649.144 C 744.744,649.144 744.744,649.072 744.744,649 C 744.744,649 744.744,648.136 744.744,648.136 C 744.744,648.064 744.744,648.064 744.889,648.064 C 744.889,648.064 748.775,648.064 748.775,648.064 C 748.775,648.064 744.672,643.023 744.672,643.023 C 744.672,643.023 744.672,642.16 744.672,642.16 C 744.672,642.088 744.744,642.088 744.816,642.088 C 744.816,642.088 750.145,642.088 750.145,642.088 C 750.145,642.088 750.145,642.088 750.145,642.088 Z M 743.736,646.768 C 743.809,646.768 743.809,646.768 743.809,646.84 C 743.809,647.704 743.664,648.28 743.377,648.712 C 743.016,649 742.512,649.144 741.863,649.144 C 741.863,649.144 739.271,649.144 739.271,649.144 C 738.768,649.144 738.408,649 738.049,648.784 C 737.615,648.424 737.473,647.92 737.473,647.344 C 737.473,646.912 737.545,646.48 737.615,646.191 C 737.688,645.832 737.904,645.616 738.121,645.544 C 738.336,645.473 738.553,645.4 738.84,645.4 C 739.129,645.4 739.416,645.4 739.705,645.4 C 739.705,645.4 740.137,645.4 740.137,645.4 C 740.424,645.4 740.713,645.328 741.072,645.328 C 741.359,645.328 741.648,645.256 741.936,645.184 C 742.225,645.111 742.439,644.969 742.656,644.824 C 742.801,644.68 742.873,644.464 742.873,644.248 C 742.873,643.816 742.801,643.527 742.656,643.385 C 742.512,643.24 742.297,643.168 741.936,643.168 C 741.936,643.168 739.271,643.168 739.271,643.168 C 739.057,643.168 738.912,643.168 738.84,643.168 C 738.695,643.24 738.625,643.312 738.553,643.385 C 738.48,643.527 738.408,643.889 738.408,644.393 C 738.408,644.464 738.336,644.464 738.264,644.464 C 738.264,644.464 737.545,644.464 737.545,644.464 C 737.473,644.464 737.473,644.464 737.473,644.393 C 737.473,643.527 737.545,642.952 737.832,642.592 C 737.904,642.448 738.121,642.305 738.336,642.232 C 738.625,642.16 738.84,642.088 739.199,642.088 C 739.199,642.088 741.936,642.088 741.936,642.088 C 743.16,642.088 743.809,642.664 743.809,643.889 C 743.809,644.32 743.736,644.752 743.592,645.04 C 743.52,645.4 743.305,645.688 743.088,645.904 C 742.873,646.048 742.656,646.12 742.367,646.264 C 742.152,646.336 741.793,646.408 741.432,646.408 C 741.289,646.408 741.145,646.408 741,646.408 C 740.855,646.408 740.713,646.408 740.568,646.408 C 740.137,646.48 739.775,646.48 739.561,646.48 C 739.344,646.48 739.199,646.48 739.199,646.48 C 739.129,646.553 739.129,646.553 739.057,646.553 C 738.912,646.553 738.84,646.553 738.768,646.553 C 738.625,646.553 738.553,646.553 738.553,646.624 C 738.48,646.624 738.48,646.624 738.408,646.695 C 738.408,646.768 738.408,646.84 738.408,646.984 C 738.408,647.416 738.48,647.704 738.553,647.848 C 738.695,647.992 738.912,648.064 739.199,648.064 C 739.199,648.064 741.936,648.064 741.936,648.064 C 742.297,648.064 742.584,647.992 742.729,647.848 C 742.801,647.776 742.801,647.632 742.873,647.488 C 742.873,647.344 742.943,647.128 742.943,646.84 C 742.943,646.768 742.943,646.768 743.016,646.768 C 743.016,646.768 743.736,646.768 743.736,646.768 C 743.736,646.768 743.736,646.768 743.736,646.768 Z M 735.744,644.824 C 735.744,644.824 735.744,646.336 735.744,646.336 C 735.744,647.488 735.24,648.064 734.305,648.064 C 734.305,648.064 732.432,648.064 732.432,648.064 C 731.496,648.064 731.064,647.488 731.064,646.336 C 731.064,646.336 731.064,644.824 731.064,644.824 C 731.064,643.672 731.496,643.096 732.432,643.096 C 732.432,643.096 734.305,643.096 734.305,643.096 C 735.24,643.096 735.744,643.672 735.744,644.824 C 735.744,644.824 735.744,644.824 735.744,644.824 Z M 736.68,644.824 C 736.68,643.889 736.465,643.24 736.031,642.736 C 735.672,642.305 735.096,642.088 734.377,642.088 C 734.377,642.088 732.359,642.088 732.359,642.088 C 730.848,642.088 730.057,643.023 730.057,644.824 C 730.057,644.824 730.057,646.336 730.057,646.336 C 730.057,647.272 730.271,647.992 730.705,648.424 C 730.92,648.64 731.137,648.856 731.424,648.928 C 731.713,649.072 732,649.144 732.359,649.144 C 732.359,649.144 734.377,649.144 734.377,649.144 C 735.096,649.144 735.672,648.928 736.031,648.424 C 736.248,648.208 736.465,647.92 736.535,647.56 C 736.607,647.2 736.68,646.84 736.68,646.336 C 736.68,646.336 736.68,644.824 736.68,644.824 C 736.68,644.824 736.68,644.824 736.68,644.824 Z M 730.344,642.088 C 730.416,642.088 730.488,642.088 730.488,642.16 C 730.488,642.232 730.488,642.232 730.416,642.305 C 730.416,642.305 730.416,642.232 730.416,642.232 C 730.416,642.232 727.607,646.336 727.607,646.336 C 727.607,646.336 730.129,649 730.129,649 C 730.129,649 730.129,649 730.129,649 C 730.129,649 730.129,649 730.129,649.072 C 730.129,649.072 730.129,649.144 730.129,649.144 C 730.129,649.144 730.057,649.216 730.057,649.216 C 730.057,649.216 728.977,649.216 728.977,649.216 C 728.977,649.216 728.977,649.216 728.977,649.216 C 728.904,649.216 728.904,649.144 728.904,649.144 C 728.904,649.144 726.744,646.912 726.744,646.912 C 726.744,646.912 725.809,646.912 725.809,646.912 C 725.809,646.912 725.809,651.88 725.809,651.88 C 725.809,651.952 725.809,651.952 725.736,651.952 C 725.736,651.952 725.016,651.952 725.016,651.952 C 724.943,651.952 724.943,651.952 724.943,651.88 C 724.943,651.88 724.943,642.232 724.943,642.232 C 724.943,642.16 724.943,642.088 725.016,642.088 C 725.016,642.088 725.736,642.088 725.736,642.088 C 725.809,642.088 725.809,642.16 725.809,642.232 C 725.809,642.232 725.809,645.688 725.809,645.688 C 725.809,645.688 726.816,645.688 726.816,645.688 C 726.816,645.688 729.336,642.088 729.336,642.088 C 729.336,642.088 729.336,642.088 729.408,642.088 C 729.408,642.088 730.344,642.088 730.344,642.088 C 730.344,642.088 730.344,642.088 730.344,642.088 Z M 719.977,644.824 C 719.977,643.672 719.545,643.096 718.607,643.096 C 718.607,643.096 716.736,643.096 716.736,643.096 C 715.801,643.096 715.297,643.672 715.297,644.824 C 715.297,644.824 715.297,646.336 715.297,646.336 C 715.297,647.488 715.801,648.064 716.736,648.064 C 716.736,648.064 718.607,648.064 718.607,648.064 C 719.545,648.064 719.977,647.488 719.977,646.336 C 719.977,646.336 719.977,644.824 719.977,644.824 C 719.977,644.824 719.977,644.824 719.977,644.824 Z M 720.912,644.824 C 720.912,644.824 720.912,646.336 720.912,646.336 C 720.912,646.84 720.84,647.2 720.768,647.56 C 720.695,647.92 720.553,648.208 720.336,648.424 C 719.904,648.928 719.328,649.144 718.607,649.144 C 718.607,649.144 716.664,649.144 716.664,649.144 C 716.232,649.144 715.943,649.072 715.656,648.928 C 715.367,648.856 715.152,648.64 714.936,648.424 C 714.504,647.992 714.359,647.272 714.359,646.336 C 714.359,646.336 714.359,644.824 714.359,644.824 C 714.359,643.023 715.08,642.088 716.664,642.088 C 716.664,642.088 718.607,642.088 718.607,642.088 C 719.328,642.088 719.904,642.305 720.336,642.736 C 720.695,643.24 720.912,643.889 720.912,644.824 C 720.912,644.824 720.912,644.824 720.912,644.824 Z M 707.016,646.408 C 707.016,647.344 707.232,647.992 707.592,648.496 C 708.023,649 708.527,649.216 709.248,649.216 C 709.248,649.216 711.191,649.216 711.191,649.216 C 711.84,649.216 712.271,649.072 712.561,648.712 C 712.561,648.712 712.561,651.88 712.561,651.88 C 712.561,651.952 712.561,651.952 712.633,651.952 C 712.633,651.952 713.424,651.952 713.424,651.952 C 713.496,651.952 713.496,651.952 713.496,651.88 C 713.496,651.88 713.496,644.393 713.496,644.393 C 713.496,644.176 713.424,644.032 713.424,643.816 C 713.352,643.672 713.352,643.527 713.279,643.385 C 713.279,643.312 713.209,643.168 713.137,643.096 C 713.064,643.023 712.992,642.88 712.92,642.809 C 712.775,642.52 712.488,642.305 712.199,642.232 C 711.84,642.088 711.553,642.088 711.191,642.088 C 711.191,642.088 709.248,642.088 709.248,642.088 C 707.736,642.088 707.016,643.023 707.016,644.896 C 707.016,644.896 707.016,646.408 707.016,646.408 C 707.016,646.408 707.016,646.408 707.016,646.408 Z M 707.951,644.896 C 707.951,644.176 708.096,643.744 708.385,643.527 C 708.6,643.24 708.961,643.168 709.535,643.168 C 709.535,643.168 711.121,643.168 711.121,643.168 C 711.336,643.168 711.553,643.168 711.695,643.24 C 711.84,643.312 711.984,643.385 712.129,643.527 C 712.416,643.816 712.561,644.248 712.561,644.896 C 712.561,644.896 712.561,646.408 712.561,646.408 C 712.561,646.984 712.416,647.416 712.129,647.704 C 711.984,647.848 711.84,647.92 711.695,647.992 C 711.553,648.064 711.336,648.136 711.121,648.136 C 711.121,648.136 709.535,648.136 709.535,648.136 C 708.457,648.136 707.951,647.56 707.951,646.408 C 707.951,646.408 707.951,644.896 707.951,644.896 C 707.951,644.896 707.951,644.896 707.951,644.896 Z M 703.344,642.088 C 703.416,642.088 703.416,642.088 703.416,642.16 C 703.416,642.16 703.416,646.12 703.416,646.12 C 703.416,647.128 703.2,647.848 702.84,648.352 C 702.408,648.856 701.832,649.144 701.112,649.144 C 701.112,649.144 699.24,649.144 699.24,649.144 C 698.52,649.144 697.944,648.856 697.512,648.352 C 697.08,647.848 696.936,647.128 696.936,646.191 C 696.936,646.191 696.936,642.16 696.936,642.16 C 696.936,642.088 696.936,642.088 697.008,642.088 C 697.008,642.088 697.729,642.088 697.729,642.088 C 697.801,642.088 697.872,642.088 697.872,642.16 C 697.872,642.16 697.872,646.264 697.872,646.264 C 697.872,646.84 698.016,647.272 698.232,647.56 C 698.52,647.848 698.809,648.064 699.24,648.064 C 699.24,648.064 701.112,648.064 701.112,648.064 C 701.544,648.064 701.832,647.92 702.12,647.56 C 702.336,647.272 702.48,646.84 702.48,646.264 C 702.48,646.264 702.48,642.16 702.48,642.16 C 702.48,642.088 702.553,642.088 702.553,642.088 C 702.553,642.088 703.344,642.088 703.344,642.088 C 703.344,642.088 703.344,642.088 703.344,642.088 Z M 691.607,648.064 C 691.607,648.064 693.912,648.064 693.912,648.064 C 694.271,648.064 694.561,647.92 694.775,647.632 C 694.992,647.416 695.137,647.056 695.137,646.624 C 695.137,646.624 690.456,646.624 690.456,646.624 C 690.456,647.056 690.6,647.344 690.816,647.632 C 691.032,647.92 691.32,648.064 691.607,648.064 C 691.607,648.064 691.607,648.064 691.607,648.064 Z M 696.072,644.248 C 696.072,644.248 696.066,644.633 696.066,644.633 C 696.066,644.705 695.994,644.777 695.851,644.777 C 695.851,644.777 695.635,644.777 695.635,644.777 C 695.635,644.777 695.562,644.777 695.49,644.777 C 695.419,644.777 695.347,644.777 695.203,644.705 C 695.203,644.705 695.208,644.536 695.208,644.536 C 695.208,644.032 695.137,643.672 694.92,643.456 C 694.775,643.24 694.488,643.168 694.128,643.168 C 694.128,643.168 691.752,643.168 691.752,643.168 C 690.889,643.168 690.456,643.744 690.456,644.824 C 690.456,644.824 690.456,645.544 690.456,645.544 C 690.456,645.544 696,645.544 696,645.544 C 696.072,645.544 696.072,645.544 696.072,645.688 C 696.072,645.688 696.072,646.624 696.072,646.624 C 696.072,647.056 696,647.416 695.928,647.704 C 695.784,648.064 695.641,648.28 695.424,648.568 C 695.208,648.712 694.92,648.856 694.704,649 C 694.416,649.072 694.128,649.144 693.84,649.144 C 693.84,649.144 691.752,649.144 691.752,649.144 C 691.104,649.144 690.6,648.856 690.096,648.424 C 689.736,647.848 689.52,647.2 689.52,646.336 C 689.52,646.336 689.52,644.752 689.52,644.752 C 689.52,642.952 690.24,642.088 691.752,642.088 C 691.752,642.088 694.2,642.088 694.2,642.088 C 694.775,642.088 695.208,642.232 695.496,642.592 C 695.712,642.809 695.855,643.023 695.928,643.312 C 696.072,643.6 696.072,643.889 696.072,644.248 C 696.072,644.248 696.072,644.248 696.072,644.248 Z M 688.729,644.68 C 688.729,644.68 688.656,644.68 688.656,644.68 C 688.656,644.68 688.656,644.68 688.656,644.68 C 688.656,644.68 687.936,644.68 687.936,644.68 C 687.864,644.68 687.864,644.68 687.864,644.607 C 687.864,644.607 687.864,644.536 687.864,644.536 C 687.864,643.6 687.432,643.168 686.568,643.168 C 686.568,643.168 684.264,643.168 684.264,643.168 C 683.977,643.168 683.688,643.312 683.473,643.6 C 683.256,643.889 683.112,644.248 683.112,644.68 C 683.112,644.68 683.112,646.408 683.112,646.408 C 683.112,646.984 683.256,647.344 683.4,647.632 C 683.616,647.92 683.904,648.064 684.336,648.064 C 684.336,648.064 686.568,648.064 686.568,648.064 C 687.432,648.064 687.864,647.56 687.864,646.624 C 687.864,646.624 687.864,646.624 687.864,646.624 C 687.864,646.553 687.864,646.48 687.936,646.48 C 687.936,646.48 688.656,646.48 688.656,646.48 C 688.729,646.48 688.801,646.553 688.801,646.624 C 688.801,647.488 688.584,648.136 688.152,648.568 C 687.792,648.928 687.217,649.144 686.568,649.144 C 686.568,649.144 684.336,649.144 684.336,649.144 C 683.76,649.144 683.184,648.856 682.752,648.424 C 682.536,648.136 682.393,647.848 682.32,647.56 C 682.248,647.2 682.176,646.84 682.176,646.408 C 682.176,646.408 682.176,644.68 682.176,644.68 C 682.176,642.952 682.896,642.088 684.264,642.088 C 684.264,642.088 686.568,642.088 686.568,642.088 C 688.008,642.088 688.801,642.88 688.801,644.607 C 688.801,644.607 688.801,644.607 688.801,644.607 C 688.801,644.607 688.729,644.68 688.729,644.68 C 688.729,644.68 688.729,644.68 688.729,644.68 Z M 678.432,642.088 C 678.504,642.088 678.504,642.088 678.504,642.16 C 678.504,642.16 678.504,646.408 678.504,646.408 C 678.504,646.84 678.504,647.272 678.36,647.56 C 678.288,647.92 678.145,648.208 677.928,648.496 C 677.496,648.928 676.992,649.216 676.271,649.216 C 676.271,649.216 674.112,649.216 674.112,649.216 C 673.824,649.216 673.607,649.144 673.465,649.072 C 673.32,649.072 673.176,648.928 673.032,648.784 C 673.032,648.784 673.032,651.88 673.032,651.88 C 673.032,651.952 672.96,651.952 672.889,651.952 C 672.889,651.952 672.096,651.952 672.096,651.952 C 672.023,651.952 672.023,651.952 672.023,651.88 C 672.023,651.88 672.023,642.16 672.023,642.16 C 672.023,642.088 672.023,642.088 672.096,642.088 C 672.096,642.088 672.889,642.088 672.889,642.088 C 672.96,642.088 673.032,642.088 673.032,642.16 C 673.032,642.16 673.032,646.408 673.032,646.408 C 673.032,646.912 673.104,647.344 673.393,647.704 C 673.607,647.992 673.969,648.136 674.328,648.136 C 674.328,648.136 676.271,648.136 676.271,648.136 C 676.633,648.136 676.992,647.992 677.208,647.632 C 677.424,647.344 677.568,646.912 677.568,646.408 C 677.568,646.408 677.568,642.16 677.568,642.16 C 677.568,642.088 677.641,642.088 677.712,642.088 C 677.712,642.088 678.432,642.088 678.432,642.088 C 678.432,642.088 678.432,642.088 678.432,642.088 Z M 671.16,644.68 C 671.16,644.68 671.16,644.68 671.088,644.68 C 671.088,644.68 671.088,644.68 671.088,644.68 C 671.088,644.68 670.368,644.68 670.368,644.68 C 670.297,644.68 670.297,644.68 670.297,644.607 C 670.297,644.607 670.297,644.536 670.297,644.536 C 670.297,643.6 669.864,643.168 669,643.168 C 669,643.168 666.768,643.168 666.768,643.168 C 666.408,643.168 666.12,643.312 665.904,643.6 C 665.688,643.889 665.544,644.248 665.544,644.68 C 665.544,644.68 665.544,646.408 665.544,646.408 C 665.544,646.984 665.688,647.344 665.904,647.632 C 666.049,647.92 666.408,648.064 666.768,648.064 C 666.768,648.064 669,648.064 669,648.064 C 669.864,648.064 670.297,647.56 670.297,646.624 C 670.297,646.624 670.297,646.624 670.297,646.624 C 670.297,646.553 670.297,646.48 670.368,646.48 C 670.368,646.48 671.088,646.48 671.088,646.48 C 671.16,646.48 671.232,646.553 671.232,646.624 C 671.232,647.488 671.016,648.136 670.584,648.568 C 670.225,648.928 669.648,649.144 669,649.144 C 669,649.144 666.768,649.144 666.768,649.144 C 666.191,649.144 665.688,648.856 665.184,648.424 C 664.969,648.136 664.824,647.848 664.752,647.56 C 664.68,647.2 664.607,646.84 664.607,646.408 C 664.607,646.408 664.607,644.68 664.607,644.68 C 664.607,642.952 665.328,642.088 666.768,642.088 C 666.768,642.088 669,642.088 669,642.088 C 670.439,642.088 671.232,642.88 671.232,644.607 C 671.232,644.607 671.232,644.607 671.232,644.607 C 671.232,644.607 671.16,644.68 671.16,644.68 C 671.16,644.68 671.16,644.68 671.16,644.68 Z M 664.248,649 C 664.248,649 664.248,649.072 664.248,649.072 C 664.248,649.144 664.176,649.216 664.104,649.216 C 664.104,649.216 663.312,649.216 663.312,649.216 C 663.24,649.216 663.24,649.144 663.168,649 C 663.168,649 660.936,643.385 660.936,643.385 C 660.936,643.385 658.776,649 658.776,649 C 658.776,649.144 658.704,649.216 658.633,649.216 C 658.633,649.216 657.84,649.216 657.84,649.216 C 657.768,649.216 657.696,649.144 657.696,649.072 C 657.696,649.072 657.696,649 657.696,649 C 657.696,649 660.36,642.16 660.36,642.16 C 660.288,641.943 660.217,641.729 660.072,641.512 C 659.928,641.296 659.784,641.152 659.641,640.936 C 659.352,640.576 658.992,640.432 658.633,640.432 C 658.561,640.432 658.561,640.359 658.561,640.288 C 658.561,640.288 658.561,639.279 658.561,639.279 C 658.561,639.208 658.561,639.137 658.633,639.137 C 659.784,639.137 660.721,640.145 661.584,642.16 C 661.584,642.16 664.248,649 664.248,649 C 664.248,649 664.248,649 664.248,649 Z M 656.904,642.088 C 656.977,642.088 657.049,642.088 657.049,642.16 C 657.049,642.16 657.049,646.12 657.049,646.12 C 657.049,647.128 656.832,647.848 656.473,648.352 C 656.04,648.856 655.465,649.144 654.744,649.144 C 654.744,649.144 652.872,649.144 652.872,649.144 C 652.08,649.144 651.576,648.856 651.145,648.352 C 650.712,647.848 650.496,647.128 650.496,646.191 C 650.496,646.191 650.496,642.16 650.496,642.16 C 650.496,642.088 650.568,642.088 650.641,642.088 C 650.641,642.088 651.36,642.088 651.36,642.088 C 651.432,642.088 651.504,642.088 651.504,642.16 C 651.504,642.16 651.504,646.264 651.504,646.264 C 651.504,646.84 651.648,647.272 651.864,647.56 C 652.152,647.848 652.439,648.064 652.872,648.064 C 652.872,648.064 654.744,648.064 654.744,648.064 C 655.176,648.064 655.465,647.92 655.752,647.56 C 655.969,647.272 656.112,646.84 656.112,646.264 C 656.112,646.264 656.112,642.16 656.112,642.16 C 656.112,642.088 656.112,642.088 656.184,642.088 C 656.184,642.088 656.904,642.088 656.904,642.088 C 656.904,642.088 656.904,642.088 656.904,642.088 Z M 649.561,642.088 C 649.633,642.088 649.704,642.088 649.704,642.16 C 649.704,642.16 649.704,651.88 649.704,651.88 C 649.704,651.952 649.633,651.952 649.561,651.952 C 649.561,651.952 649.057,651.952 649.057,651.952 C 648.984,651.952 648.912,651.952 648.912,651.88 C 648.912,651.88 648.912,642.16 648.912,642.16 C 648.912,642.088 648.984,642.088 649.057,642.088 C 649.057,642.088 649.561,642.088 649.561,642.088 C 649.561,642.088 649.561,642.088 649.561,642.088 Z M 647.112,644.32 C 647.112,643.527 646.824,643.168 646.104,643.168 C 646.104,643.168 643.44,643.168 643.44,643.168 C 642.792,643.168 642.504,643.456 642.504,644.032 C 642.504,644.032 642.504,644.536 642.504,644.536 C 642.504,644.896 642.576,645.184 642.792,645.256 C 642.936,645.328 643.152,645.4 643.44,645.4 C 643.44,645.4 647.184,645.4 647.184,645.4 C 647.184,645.328 647.184,645.184 647.184,645.04 C 647.184,644.824 647.112,644.607 647.112,644.32 C 647.112,644.32 647.112,644.32 647.112,644.32 Z M 648.192,646.768 C 648.192,647.56 647.976,648.208 647.616,648.568 C 647.256,648.928 646.752,649.144 646.104,649.144 C 646.104,649.144 643.8,649.144 643.8,649.144 C 643.512,649.144 643.296,649.072 643.008,649 C 642.792,648.928 642.576,648.856 642.432,648.712 C 642,648.352 641.784,647.848 641.784,647.2 C 641.784,647.2 641.784,647.056 641.784,647.056 C 641.784,646.984 641.856,646.912 641.928,646.912 C 641.928,646.912 642.648,646.912 642.648,646.912 C 642.72,646.912 642.792,646.984 642.792,647.056 C 642.792,647.704 643.152,648.064 643.944,648.064 C 643.944,648.064 646.032,648.064 646.032,648.064 C 646.32,648.064 646.608,647.92 646.824,647.704 C 646.824,647.704 646.824,647.704 646.824,647.704 C 647.04,647.488 647.112,647.2 647.112,646.768 C 647.112,646.768 647.184,646.553 647.184,646.553 C 647.184,646.553 644.016,646.553 644.016,646.553 C 643.584,646.553 643.152,646.553 642.792,646.48 C 642.504,646.408 642.216,646.336 642.072,646.191 C 641.856,646.048 641.712,645.832 641.64,645.544 C 641.568,645.256 641.568,644.969 641.568,644.536 C 641.568,644.536 641.568,643.889 641.568,643.889 C 641.568,642.664 642.072,642.088 643.152,642.088 C 643.152,642.088 646.392,642.088 646.392,642.088 C 646.752,642.088 647.04,642.088 647.256,642.16 C 647.472,642.232 647.688,642.376 647.832,642.592 C 647.904,642.809 648.048,643.096 648.048,643.456 C 648.12,643.816 648.192,644.32 648.192,644.896 C 648.192,644.896 648.192,646.12 648.192,646.12 C 648.192,646.191 648.192,646.264 648.192,646.336 C 648.192,646.408 648.192,646.48 648.192,646.553 C 648.192,646.553 648.192,646.768 648.192,646.768 C 648.192,646.768 648.192,646.768 648.192,646.768 Z M 636.312,648.064 C 636.312,648.064 638.616,648.064 638.616,648.064 C 638.976,648.064 639.264,647.92 639.48,647.632 C 639.696,647.416 639.84,647.056 639.84,646.624 C 639.84,646.624 635.16,646.624 635.16,646.624 C 635.16,647.056 635.304,647.344 635.52,647.632 C 635.736,647.92 636.024,648.064 636.312,648.064 C 636.312,648.064 636.312,648.064 636.312,648.064 Z M 640.777,644.172 C 640.777,644.172 640.761,644.617 640.761,644.617 C 640.761,644.688 640.688,644.761 640.544,644.761 C 640.544,644.761 640.329,644.761 640.329,644.761 C 640.329,644.761 640.256,644.761 640.185,644.761 C 640.112,644.761 640.041,644.761 639.896,644.688 C 639.896,644.688 639.913,644.46 639.913,644.46 C 639.913,643.956 639.84,643.672 639.624,643.456 C 639.48,643.24 639.192,643.168 638.832,643.168 C 638.832,643.168 636.456,643.168 636.456,643.168 C 635.592,643.168 635.16,643.744 635.16,644.824 C 635.16,644.824 635.16,645.544 635.16,645.544 C 635.16,645.544 640.704,645.544 640.704,645.544 C 640.776,645.544 640.776,645.544 640.776,645.688 C 640.776,645.688 640.776,646.624 640.776,646.624 C 640.776,647.056 640.776,647.416 640.632,647.704 C 640.488,648.064 640.344,648.28 640.128,648.568 C 639.912,648.712 639.696,648.856 639.408,649 C 639.12,649.072 638.832,649.144 638.544,649.144 C 638.544,649.144 636.456,649.144 636.456,649.144 C 635.808,649.144 635.304,648.856 634.872,648.424 C 634.44,647.848 634.224,647.2 634.224,646.336 C 634.224,646.336 634.224,644.752 634.224,644.752 C 634.224,642.952 634.944,642.088 636.456,642.088 C 636.456,642.088 638.904,642.088 638.904,642.088 C 639.48,642.088 639.912,642.232 640.2,642.592 C 640.416,642.809 640.56,643.023 640.704,643.312 C 640.776,643.6 640.777,643.812 640.777,644.172 C 640.777,644.172 640.777,644.172 640.777,644.172 Z M 633.792,646.191 C 633.864,646.191 633.936,646.264 633.936,646.336 C 633.936,647.272 633.72,647.992 633.288,648.424 C 632.856,648.928 632.352,649.144 631.632,649.144 C 631.632,649.144 629.184,649.144 629.184,649.144 C 628.968,649.144 628.68,649 628.392,648.856 C 628.104,648.64 627.888,648.352 627.672,647.92 C 627.672,647.92 627.672,647.92 627.672,647.92 C 627.672,647.92 627.672,647.92 627.672,647.848 C 627.6,647.776 627.528,647.632 627.528,647.344 C 627.456,647.128 627.384,646.768 627.384,646.336 C 627.384,646.336 627.384,642.16 627.384,642.16 C 627.384,642.088 627.456,642.088 627.528,642.088 C 627.528,642.088 628.248,642.088 628.248,642.088 C 628.32,642.088 628.392,642.088 628.392,642.16 C 628.392,642.16 628.392,646.336 628.392,646.336 C 628.392,646.912 628.464,647.344 628.68,647.632 C 628.896,647.92 629.256,648.064 629.76,648.064 C 629.76,648.064 631.56,648.064 631.56,648.064 C 632.496,648.064 632.928,647.488 632.928,646.336 C 632.928,646.264 633,646.191 633.072,646.191 C 633.072,646.191 633.792,646.191 633.792,646.191 C 633.792,646.191 633.792,646.191 633.792,646.191 Z M 622.344,644.32 C 622.344,643.527 621.984,643.168 621.336,643.168 C 621.336,643.168 618.672,643.168 618.672,643.168 C 618.024,643.168 617.664,643.456 617.664,644.032 C 617.664,644.032 617.664,644.536 617.664,644.536 C 617.664,644.896 617.808,645.184 618.024,645.256 C 618.168,645.328 618.312,645.4 618.672,645.4 C 618.672,645.4 622.344,645.4 622.344,645.4 C 622.344,645.328 622.344,645.184 622.344,645.04 C 622.344,644.824 622.344,644.607 622.344,644.32 C 622.344,644.32 622.344,644.32 622.344,644.32 Z M 623.424,646.768 C 623.424,647.56 623.208,648.208 622.848,648.568 C 622.488,648.928 621.984,649.144 621.336,649.144 C 621.336,649.144 618.96,649.144 618.96,649.144 C 618.744,649.144 618.456,649.072 618.24,649 C 618.024,648.928 617.808,648.856 617.664,648.712 C 617.232,648.352 617.016,647.848 617.016,647.2 C 617.016,647.2 617.016,647.056 617.016,647.056 C 617.016,646.984 617.016,646.912 617.088,646.912 C 617.088,646.912 617.88,646.912 617.88,646.912 C 617.952,646.912 617.952,646.984 617.952,647.056 C 617.952,647.704 618.384,648.064 619.104,648.064 C 619.104,648.064 621.264,648.064 621.264,648.064 C 621.552,648.064 621.84,647.92 621.984,647.704 C 622.056,647.704 622.056,647.704 622.056,647.704 C 622.2,647.488 622.344,647.2 622.344,646.768 C 622.344,646.768 622.344,646.553 622.344,646.553 C 622.344,646.553 619.248,646.553 619.248,646.553 C 618.744,646.553 618.384,646.553 618.024,646.48 C 617.736,646.408 617.448,646.336 617.304,646.191 C 617.088,646.048 616.944,645.832 616.872,645.544 C 616.8,645.256 616.8,644.969 616.8,644.536 C 616.8,644.536 616.8,643.889 616.8,643.889 C 616.8,642.664 617.304,642.088 618.384,642.088 C 618.384,642.088 621.552,642.088 621.552,642.088 C 621.912,642.088 622.272,642.088 622.488,642.16 C 622.704,642.232 622.848,642.376 622.992,642.592 C 623.136,642.809 623.208,643.096 623.28,643.456 C 623.352,643.816 623.352,644.32 623.424,644.896 C 623.424,644.896 623.424,646.12 623.424,646.12 C 623.424,646.191 623.424,646.264 623.424,646.336 C 623.424,646.408 623.352,646.48 623.352,646.553 C 623.352,646.553 623.424,646.768 623.424,646.768 C 623.424,646.768 623.424,646.768 623.424,646.768 Z M 615.936,642.088 C 616.008,642.088 616.08,642.088 616.08,642.16 C 616.08,642.16 616.08,643.023 616.08,643.023 C 616.08,643.096 616.008,643.168 615.936,643.168 C 615.936,643.168 611.976,643.168 611.976,643.168 C 611.976,643.168 616.08,648.208 616.08,648.208 C 616.08,648.208 616.08,649 616.08,649 C 616.08,649.072 616.008,649.144 615.936,649.144 C 615.936,649.144 610.608,649.144 610.608,649.144 C 610.536,649.144 610.536,649.072 610.536,649 C 610.536,649 610.536,648.136 610.536,648.136 C 610.536,648.064 610.536,648.064 610.608,648.064 C 610.608,648.064 614.568,648.064 614.568,648.064 C 614.568,648.064 610.464,643.023 610.464,643.023 C 610.464,643.023 610.464,642.16 610.464,642.16 C 610.464,642.088 610.536,642.088 610.608,642.088 C 610.608,642.088 615.936,642.088 615.936,642.088 C 615.936,642.088 615.936,642.088 615.936,642.088 Z M 608.664,644.32 C 608.664,643.527 608.376,643.168 607.656,643.168 C 607.656,643.168 604.992,643.168 604.992,643.168 C 604.344,643.168 604.056,643.456 604.056,644.032 C 604.056,644.032 604.056,644.536 604.056,644.536 C 604.056,644.896 604.128,645.184 604.416,645.256 C 604.488,645.328 604.704,645.4 604.992,645.4 C 604.992,645.4 608.736,645.4 608.736,645.4 C 608.736,645.328 608.736,645.184 608.736,645.04 C 608.736,644.824 608.736,644.607 608.664,644.32 C 608.664,644.32 608.664,644.32 608.664,644.32 Z M 609.744,646.768 C 609.744,647.56 609.528,648.208 609.168,648.568 C 608.808,648.928 608.304,649.144 607.656,649.144 C 607.656,649.144 605.352,649.144 605.352,649.144 C 605.064,649.144 604.848,649.072 604.632,649 C 604.344,648.928 604.128,648.856 603.984,648.712 C 603.552,648.352 603.336,647.848 603.336,647.2 C 603.336,647.2 603.336,647.056 603.336,647.056 C 603.336,646.984 603.408,646.912 603.48,646.912 C 603.48,646.912 604.2,646.912 604.2,646.912 C 604.272,646.912 604.344,646.984 604.344,647.056 C 604.344,647.704 604.704,648.064 605.496,648.064 C 605.496,648.064 607.584,648.064 607.584,648.064 C 607.872,648.064 608.16,647.92 608.376,647.704 C 608.376,647.704 608.376,647.704 608.376,647.704 C 608.592,647.488 608.664,647.2 608.664,646.768 C 608.664,646.768 608.736,646.553 608.736,646.553 C 608.736,646.553 605.568,646.553 605.568,646.553 C 605.136,646.553 604.704,646.553 604.416,646.48 C 604.056,646.408 603.84,646.336 603.624,646.191 C 603.408,646.048 603.336,645.832 603.264,645.544 C 603.12,645.256 603.12,644.969 603.12,644.536 C 603.12,644.536 603.12,643.889 603.12,643.889 C 603.12,642.664 603.624,642.088 604.704,642.088 C 604.704,642.088 607.944,642.088 607.944,642.088 C 608.304,642.088 608.592,642.088 608.808,642.16 C 609.024,642.232 609.24,642.376 609.384,642.592 C 609.456,642.809 609.6,643.096 609.6,643.456 C 609.672,643.816 609.744,644.32 609.744,644.896 C 609.744,644.896 609.744,646.12 609.744,646.12 C 609.744,646.191 609.744,646.264 609.744,646.336 C 609.744,646.408 609.744,646.48 609.744,646.553 C 609.744,646.553 609.744,646.768 609.744,646.768 C 609.744,646.768 609.744,646.768 609.744,646.768 Z M 600.888,648.064 C 600.888,647.56 600.744,647.272 600.456,647.128 C 600.312,646.984 599.952,646.912 599.448,646.912 C 599.448,646.912 594.336,646.912 594.336,646.912 C 594.336,646.912 594.336,649.216 594.336,649.216 C 594.336,649.216 599.376,649.216 599.376,649.216 C 599.88,649.216 600.24,649.144 600.528,648.928 C 600.744,648.784 600.888,648.496 600.888,648.064 C 600.888,648.064 600.888,648.064 600.888,648.064 Z M 601.32,644.536 C 601.32,644.032 601.176,643.744 600.888,643.456 C 600.672,643.24 600.312,643.168 599.736,643.168 C 599.736,643.168 594.336,643.168 594.336,643.168 C 594.336,643.168 594.336,645.832 594.336,645.832 C 594.336,645.832 599.736,645.832 599.736,645.832 C 600.024,645.832 600.24,645.832 600.456,645.76 C 600.6,645.76 600.816,645.688 600.888,645.616 C 601.176,645.4 601.32,645.04 601.32,644.536 C 601.32,644.536 601.32,644.536 601.32,644.536 Z M 602.328,644.536 C 602.328,645.473 602.04,646.12 601.32,646.48 C 601.752,646.84 601.968,647.416 601.968,648.208 C 601.968,649.648 600.96,650.296 599.088,650.296 C 599.088,650.296 593.4,650.296 593.4,650.296 C 593.328,650.296 593.256,650.296 593.256,650.224 C 593.256,650.224 593.256,642.16 593.256,642.16 C 593.256,642.088 593.328,642.088 593.4,642.088 C 593.4,642.088 599.448,642.088 599.448,642.088 C 599.952,642.088 600.312,642.088 600.672,642.16 C 601.032,642.232 601.32,642.376 601.536,642.592 C 601.824,642.736 602.04,643.023 602.112,643.385 C 602.256,643.672 602.328,644.104 602.328,644.536 C 602.328,644.536 602.328,644.536 602.328,644.536 Z" fill="#5a5a5a" stroke="none" stroke-width="0.25" fill-rule="nonzero" stroke-linejoin="miter" marker-start="none" marker-end="none"/>
 </g>
</svg>
